GIL08_fast1_ik
nRows=3
nColumns=375

# SIMM Motion File Header:
name GIL08_fast1_ik
datacolumns 375
datarows 3
otherdata 1
range 0.11667000 0.13333000
endheader
time	pelvis_tx	pelvis_ty	pelvis_tz	pelvis_tilt	pelvis_list	pelvis_rotation	hip_flexion_r	hip_adduction_r	hip_rotation_r	knee_angle_r	ankle_angle_r	hip_flexion_l	hip_adduction_l	hip_rotation_l	knee_angle_l	ankle_angle_l	lumbar_extension	lumbar_bending	lumbar_rotation	subtalar_angle_r	mtp_angle_r	subtalar_angle_l	mtp_angle_l	asis_r_px	asis_r_py	asis_r_pz	asis_l_px	asis_l_py	asis_l_pz	midasis_px	midasis_py	midasis_pz	psis_r_px	psis_r_py	psis_r_pz	psis_l_px	psis_l_py	psis_l_pz	hip_r_px	hip_r_py	hip_r_pz	hip_l_px	hip_l_py	hip_l_pz	midhip_px	midhip_py	midhip_pz	epicondLat_r_px	epicondLat_r_py	epicondLat_r_pz	epicondMed_r_px	epicondMed_r_py	epicondMed_r_pz	thighwand_r_px	thighwand_r_py	thighwand_r_pz	upperleg1_r_px	upperleg1_r_py	upperleg1_r_pz	upperleg2_r_px	upperleg2_r_py	upperleg2_r_pz	malleolusLat_r_px	malleolusLat_r_py	malleolusLat_r_pz	malleolusMedv_r_px	malleolusMedv_r_py	malleolusMedv_r_pz	shankwand_r_px	shankwand_r_py	shankwand_r_pz	lowerleg1_r_px	lowerleg1_r_py	lowerleg1_r_pz	knee_r_px	knee_r_py	knee_r_pz	ankle_r_px	ankle_r_py	ankle_r_pz	toe_r_px	toe_r_py	toe_r_pz	epicondLat_l_px	epicondLat_l_py	epicondLat_l_pz	epicondMed_l_px	epicondMed_l_py	epicondMed_l_pz	thighwand_l_px	thighwand_l_py	thighwand_l_pz	upperleg1_l_px	upperleg1_l_py	upperleg1_l_pz	upperleg2_l_px	upperleg2_l_py	upperleg2_l_pz	malleolusLat_l_px	malleolusLat_l_py	malleolusLat_l_pz	malleolusMedv_l_px	malleolusMedv_l_py	malleolusMedv_l_pz	shankwand_l_px	shankwand_l_py	shankwand_l_pz	lowerleg1_l_px	lowerleg1_l_py	lowerleg1_l_pz	knee_l_px	knee_l_py	knee_l_pz	ankle_l_px	ankle_l_py	ankle_l_pz	toe_l_px	toe_l_py	toe_l_pz	subclavicle_r_px	subclavicle_r_py	subclavicle_r_pz	subclavicle_l_px	subclavicle_l_py	subclavicle_l_pz	neck_px	neck_py	neck_pz	sternalnotch_px	sternalnotch_py	sternalnotch_pz	xyphoidprocess_px	xyphoidprocess_py	xyphoidprocess_pz	midhip_tx	midhip_ty	midhip_tz	hip_r_tx	hip_r_ty	hip_r_tz	hip_l_tx	hip_l_ty	hip_l_tz	knee_r_tx	knee_r_ty	knee_r_tz	knee_l_tx	knee_l_ty	knee_l_tz	ankle_r_tx	ankle_r_ty	ankle_r_tz	ankle_l_tx	ankle_l_ty	ankle_l_tz	midasis_tx	midasis_ty	midasis_tz	asis_r_tx	asis_r_ty	asis_r_tz	asis_l_tx	asis_l_ty	asis_l_tz	psis_r_tx	psis_r_ty	psis_r_tz	psis_l_tx	psis_l_ty	psis_l_tz	epicondLat_r_tx	epicondLat_r_ty	epicondLat_r_tz	epicondLat_l_tx	epicondLat_l_ty	epicondLat_l_tz	epicondMed_r_tx	epicondMed_r_ty	epicondMed_r_tz	epicondMed_l_tx	epicondMed_l_ty	epicondMed_l_tz	malleolusLat_r_tx	malleolusLat_r_ty	malleolusLat_r_tz	malleolusLat_l_tx	malleolusLat_l_ty	malleolusLat_l_tz	malleolusMedv_r_tx	malleolusMedv_r_ty	malleolusMedv_r_tz	malleolusMedv_l_tx	malleolusMedv_l_ty	malleolusMedv_l_tz	neck_tx	neck_ty	neck_tz	subclavicle_r_tx	subclavicle_r_ty	subclavicle_r_tz	subclavicle_l_tx	subclavicle_l_ty	subclavicle_l_tz	sternalnotch_tx	sternalnotch_ty	sternalnotch_tz	xyphoidprocess_tx	xyphoidprocess_ty	xyphoidprocess_tz	thighwand_r_tx	thighwand_r_ty	thighwand_r_tz	thighwand_l_tx	thighwand_l_ty	thighwand_l_tz	upperleg1_r_tx	upperleg1_r_ty	upperleg1_r_tz	upperleg1_l_tx	upperleg1_l_ty	upperleg1_l_tz	upperleg2_r_tx	upperleg2_r_ty	upperleg2_r_tz	upperleg2_l_tx	upperleg2_l_ty	upperleg2_l_tz	shankwand_r_tx	shankwand_r_ty	shankwand_r_tz	shankwand_l_tx	shankwand_l_ty	shankwand_l_tz	lowerleg1_r_tx	lowerleg1_r_ty	lowerleg1_r_tz	lowerleg1_l_tx	lowerleg1_l_ty	lowerleg1_l_tz	toe_r_tx	toe_r_ty	toe_r_tz	toe_l_tx	toe_l_ty	toe_l_tz	ground_force_vx	ground_force_vy	ground_force_vz	ground_force_px	ground_force_py	ground_force_pz	ground_force_vx	ground_force_vy	ground_force_vz	ground_force_px	ground_force_py	ground_force_pz	ground_torque_x	ground_torque_y	ground_torque_z	ground_torque_x	ground_torque_y	ground_torque_z	ground_marker_px	ground_marker_py	ground_marker_pz	ground_marker_px	ground_marker_py	ground_marker_pz	ground_marker_px	ground_marker_py	ground_marker_pz	ground_marker_px	ground_marker_py	ground_marker_pz	ground_marker_px	ground_marker_py	ground_marker_pz	ground_marker_px	ground_marker_py	ground_marker_pz	ground_marker_px	ground_marker_py	ground_marker_pz	ground_marker_px	ground_marker_py	ground_marker_pz	ground_marker_px	ground_marker_py	ground_marker_pz	ground_marker_px	ground_marker_py	ground_marker_pz	ground_marker_px	ground_marker_py	ground_marker_pz	ground_marker_px	ground_marker_py	ground_marker_pz	ground_marker_px	ground_marker_py	ground_marker_pz	ground_marker_px	ground_marker_py	ground_marker_pz	ground_marker_px	ground_marker_py	ground_marker_pz	ground_marker_px	ground_marker_py	ground_marker_pz	ground_marker_px	ground_marker_py	ground_marker_pz	ground_marker_px	ground_marker_py	ground_marker_pz	ground_marker_px	ground_marker_py	ground_marker_pz	ground_marker_px	ground_marker_py	ground_marker_pz	ground_marker_px	ground_marker_py	ground_marker_pz	ground_marker_px	ground_marker_py	ground_marker_pz	ground_marker_px	ground_marker_py	ground_marker_pz	ground_marker_px	ground_marker_py	ground_marker_pz	ground_marker_px	ground_marker_py	ground_marker_pz	ground_marker_px	ground_marker_py	ground_marker_pz	ground_marker_px	ground_marker_py	ground_marker_pz	ground_marker_px	ground_marker_py	ground_marker_pz	ground_marker_px	ground_marker_py	ground_marker_pz	ground_marker_px	ground_marker_py	ground_marker_pz	ground_marker_px	ground_marker_py	ground_marker_pz	ground_marker_px	ground_marker_py	ground_marker_pz	ground_marker_px	ground_marker_py	ground_marker_pz	ground_marker_px	ground_marker_py	ground_marker_pz	ground_marker_px	ground_marker_py	ground_marker_pz	ground_marker_px	ground_marker_py	ground_marker_pz	ground_marker_px	ground_marker_py	ground_marker_pz
      0.11667000	      0.54096306	      0.93177548	     -0.24357970	      4.70328031	      7.41524825	    -11.71648589	    -15.73000853	    -13.07255098	      6.77992430	    -37.39045983	    -21.80979431	     20.09535269	      5.18378396	     -1.66028469	    -26.02415063	      2.04343362	     -6.73710703	    -11.21884045	     11.12432823	      0.00000000	      0.00000000	      0.00000000	      0.00000000	      0.56772833	      0.93957297	     -0.13478611	      0.60133774	      0.97329057	     -0.34235089	      0.55235531	      0.93240644	     -0.24123407	      0.37706658	      0.94799638	     -0.22871381	      0.38859332	      0.96254512	     -0.31490947	      0.47456339	      0.86432935	     -0.19506553	      0.50124462	      0.88414270	     -0.32998042	      0.48790401	      0.87423602	     -0.26252298	      0.42362619	      0.43145869	     -0.12355867	      0.40628944	      0.45020712	     -0.24139890	      0.48382899	      0.54280811	     -0.05266274	      0.50808414	      0.59494261	     -0.12697024	      0.48920122	      0.51458339	     -0.14554627	      0.03830672	      0.19018925	     -0.13037929	      0.03938530	      0.18672843	     -0.19882448	      0.10814311	      0.21990142	     -0.06467929	      0.14752351	      0.26379260	     -0.12755727	      0.38218180	      0.45732811	     -0.17600637	      0.06104499	      0.19165964	     -0.17141225	      0.05910533	      0.07177038	     -0.17422729	      0.71664109	      0.50260338	     -0.37867413	      0.67790599	      0.49695961	     -0.27778199	      0.77719622	      0.68404587	     -0.29974283	      0.69378582	      0.71014377	     -0.35394960	      0.71908124	      0.62713078	     -0.35302178	      0.64693768	      0.06754342	     -0.38134133	      0.64430649	      0.07192124	     -0.31168406	      0.75558195	      0.16680664	     -0.31471156	      0.69452982	      0.22209498	     -0.33450830	      0.66490758	      0.50222108	     -0.31501696	      0.64823793	      0.08644177	     -0.33908736	      0.77183818	      0.04114609	     -0.33176937	      0.50827023	      1.34557825	     -0.17808139	      0.51354084	      1.34331470	     -0.33362383	      0.41080229	      1.41467776	     -0.27083173	      0.49870699	      1.34546096	     -0.26024414	      0.54045165	      1.14483570	     -0.26257035	      0.48504600	      0.87034500	     -0.26772800	      0.47479400	      0.85254000	     -0.22514100	      0.49715200	      0.86501200	     -0.32859000	      0.37859900	      0.44362200	     -0.19235600	      0.66351200	      0.48350900	     -0.31026200	      0.05482200	      0.17823800	     -0.18387200	      0.64451500	      0.06800200	     -0.30997800	      0.56223000	      0.95354600	     -0.24895700	      0.54074900	      0.94156300	     -0.14956500	      0.58371200	      0.96553000	     -0.34835000	      0.35707100	      0.97963000	     -0.24411000	      0.37148900	      0.98709900	     -0.32811100	      0.37606500	      0.44896500	     -0.13315100	      0.67635500	      0.48632200	     -0.36829100	      0.39901900	      0.44271600	     -0.25218300	      0.64123600	      0.47868000	     -0.26323700	      0.04903500	      0.18646900	     -0.14722800	      0.64601300	      0.06790600	     -0.34945000	      0.06042800	      0.18163600	     -0.21293500	      0.65111000	      0.07414800	     -0.27965700	      0.42523100	      1.43779400	     -0.26900600	      0.50377193	      1.37921827	     -0.18594356	      0.52865400	      1.36437300	     -0.33708100	      0.49550604	      1.37534052	     -0.26655107	      0.52772886	      1.17545792	     -0.25976792	      0.41434700	      0.54733200	     -0.05379400	      0.75926500	      0.65091200	     -0.30666700	      0.45824800	      0.59758000	     -0.12186300	      0.67910600	      0.67900300	     -0.36410700	      0.44815000	      0.51527200	     -0.14040700	      0.69572500	      0.59334500	     -0.35297200	      0.11046400	      0.23414600	     -0.07981300	      0.75419300	      0.17584300	     -0.29349400	      0.15623000	      0.27353100	     -0.14375500	      0.69237100	      0.22696900	     -0.31093800	      0.07022500	      0.05630700	     -0.19653500	      0.77253900	      0.04264400	     -0.31415000	      0.00000000	      0.00000000	      0.00000000	      1.21891760	      0.00000000	     -0.17664749	    -89.18783224	    642.55341780	     17.27715618	      0.65904358	      0.00000000	     -0.31448856	      0.00000000	      0.00000000	      0.00000000	      0.00000000	      1.29398486	      0.00000000	      0.48504615	      0.87034535	     -0.26772773	      0.47479379	      0.85253954	     -0.22514068	      0.49715185	      0.86501241	     -0.32858968	      0.37859932	      0.44362184	     -0.19235609	      0.66351163	      0.48350883	     -0.31026191	      0.05482205	      0.17823762	     -0.18387190	      0.64451468	      0.06800177	     -0.30997813	      0.56223047	      0.95354629	     -0.24895743	      0.54074913	      0.94156253	     -0.14956520	      0.58371174	      0.96553004	     -0.34834963	      0.35707074	      0.97962976	     -0.24411005	      0.37148920	      0.98709929	     -0.32811084	      0.37606508	      0.44896474	     -0.13315068	      0.67635506	      0.48632160	     -0.36829108	      0.39901868	      0.44271615	     -0.25218308	      0.64123648	      0.47868037	     -0.26323694	      0.04903526	      0.18646917	     -0.14722829	      0.64601284	      0.06790632	     -0.34944957	      0.06042818	      0.18163560	     -0.21293546	      0.65110976	      0.07414771	     -0.27965695	      0.42523092	      1.43779409	     -0.26900595	      0.00000000	      0.00000000	      0.00000000	      0.52865362	      1.36437273	     -0.33708063	      0.00000000	      0.00000000	      0.00000000	      0.00000000	      0.00000000	      0.00000000	      0.41434658	      0.54733175	     -0.05379364	      0.75926495	      0.65091228	     -0.30666724	      0.45824784	      0.59758019	     -0.12186327	      0.67910552	      0.67900306	     -0.36410719	      0.44814962	      0.51527196	     -0.14040659	      0.69572484	      0.59334487	     -0.35297218	      0.11046375	      0.23414630	     -0.07981280	      0.75419325	      0.17584261	     -0.29349378	      0.15622982	      0.27353135	     -0.14375503	      0.69237143	      0.22696897	     -0.31093773	      0.07022540	      0.05630697	     -0.19653505	      0.77253920	      0.04264393	     -0.31415007
      0.12500000	      0.55441263	      0.93346722	     -0.24424306	      4.75761170	      7.57825036	    -11.49757433	    -14.33697217	    -13.13023366	      6.63406248	    -39.97075679	    -22.36445100	     19.14483771	      5.71678189	     -1.12760616	    -25.99360957	      2.93827714	     -6.85222659	    -11.44047392	     10.73142282	      0.00000000	      0.00000000	      0.00000000	      0.00000000	      0.58160285	      0.94102938	     -0.13553827	      0.61433068	      0.97531868	     -0.34315027	      0.56581327	      0.93410881	     -0.24194152	      0.39055388	      0.94941265	     -0.22867948	      0.40171377	      0.96419527	     -0.31488362	      0.48830542	      0.86580272	     -0.19563366	      0.51441662	      0.88599470	     -0.33060393	      0.50136102	      0.87589871	     -0.26311880	      0.44808182	      0.43205260	     -0.12264234	      0.43049544	      0.44993832	     -0.24057965	      0.50535183	      0.54512715	     -0.05204777	      0.52843019	      0.59758513	     -0.12650226	      0.51159694	      0.51671247	     -0.14481872	      0.05700818	      0.19596749	     -0.13048152	      0.05830662	      0.19233317	     -0.19891390	      0.12714474	      0.22442918	     -0.06454808	      0.16765720	      0.26738682	     -0.12735152	      0.40632829	      0.45610114	     -0.17521427	      0.07994433	      0.19689311	     -0.17142015	      0.07450138	      0.07711231	     -0.17425882	      0.72377373	      0.50100084	     -0.37844005	      0.68437184	      0.49590598	     -0.27777716	      0.78685562	      0.68134993	     -0.29898357	      0.70419937	      0.70886753	     -0.35364156	      0.72811787	      0.62544811	     -0.35265094	      0.64714926	      0.06713333	     -0.38189063	      0.64418638	      0.07149779	     -0.31224585	      0.75697725	      0.16459746	     -0.31454937	      0.69693029	      0.22086873	     -0.33464866	      0.67166944	      0.50141651	     -0.31508210	      0.64850706	      0.08597528	     -0.33961329	      0.77205441	      0.04061970	     -0.33179039	      0.52175718	      1.34721337	     -0.17859517	      0.52738221	      1.34473022	     -0.33412184	      0.42456669	      1.41627549	     -0.27166396	      0.51238220	      1.34699157	     -0.26077940	      0.55394466	      1.14632452	     -0.26273336	      0.49856100	      0.87164400	     -0.26900200	      0.48853800	      0.85384400	     -0.22593400	      0.51061500	      0.86673400	     -0.32939200	      0.40247100	      0.44215300	     -0.19239500	      0.67033100	      0.48308900	     -0.31086100	      0.07389300	      0.18385000	     -0.18319600	      0.64440100	      0.06800700	     -0.31029300	      0.57576600	      0.95506700	     -0.24959700	      0.55459100	      0.94270400	     -0.15036600	      0.59694000	      0.96743100	     -0.34882700	      0.37066700	      0.98070800	     -0.24394900	      0.38459900	      0.98871600	     -0.32799900	      0.39963900	      0.44756600	     -0.13320900	      0.68366300	      0.48584200	     -0.36878200	      0.42427400	      0.44124200	     -0.25303800	      0.64816800	      0.47836700	     -0.26455200	      0.06848600	      0.19203600	     -0.14648400	      0.64612700	      0.06784500	     -0.34975500	      0.07828700	      0.18585900	     -0.21305300	      0.65114700	      0.07413300	     -0.27996000	      0.43869700	      1.43922400	     -0.26994400	      0.51753987	      1.38013327	     -0.18608109	      0.54214900	      1.36581300	     -0.33807700	      0.50924209	      1.37630902	     -0.26686504	      0.54149589	      1.17630792	     -0.26015900	      0.43507200	      0.54647600	     -0.05418600	      0.76891700	      0.64903900	     -0.30607400	      0.47777900	      0.59729800	     -0.12158700	      0.68951600	      0.67882400	     -0.36373300	      0.47028200	      0.51469400	     -0.14057200	      0.70481800	      0.59289500	     -0.35314200	      0.13121400	      0.23809700	     -0.07930000	      0.75595200	      0.17412000	     -0.29324000	      0.17046500	      0.27724500	     -0.14228900	      0.69496100	      0.22620000	     -0.31127900	      0.08557800	      0.06111700	     -0.19538700	      0.77256000	      0.04247600	     -0.31444600	      0.00000000	      0.00000000	      0.00000000	      1.21968799	      0.00000000	     -0.17693510	    -83.45156525	    648.87395692	     21.60190494	      0.65933435	      0.00000000	     -0.31474298	      0.00000000	      0.00000000	      0.00000000	      0.00000000	      1.36124365	      0.00000000	      0.49856067	      0.87164450	     -0.26900250	      0.48853818	      0.85384393	     -0.22593369	      0.51061463	      0.86673385	     -0.32939205	      0.40247139	      0.44215250	     -0.19239466	      0.67033136	      0.48308909	     -0.31086051	      0.07389326	      0.18384989	     -0.18319577	      0.64440060	      0.06800716	     -0.31029272	      0.57576561	      0.95506746	     -0.24959674	      0.55459130	      0.94270426	     -0.15036607	      0.59693992	      0.96743065	     -0.34882742	      0.37066737	      0.98070771	     -0.24394931	      0.38459948	      0.98871648	     -0.32799906	      0.39963949	      0.44756615	     -0.13320917	      0.68366331	      0.48584151	     -0.36878228	      0.42427415	      0.44124201	     -0.25303823	      0.64816803	      0.47836700	     -0.26455173	      0.06848576	      0.19203600	     -0.14648411	      0.64612728	      0.06784531	     -0.34975463	      0.07828677	      0.18585934	     -0.21305278	      0.65114671	      0.07413267	     -0.27996010	      0.43869695	      1.43922400	     -0.26994416	      0.00000000	      0.00000000	      0.00000000	      0.54214907	      1.36581326	     -0.33807659	      0.00000000	      0.00000000	      0.00000000	      0.00000000	      0.00000000	      0.00000000	      0.43507221	      0.54647595	     -0.05418573	      0.76891655	      0.64903855	     -0.30607373	      0.47777894	      0.59729779	     -0.12158713	      0.68951613	      0.67882395	     -0.36373326	      0.47028181	      0.51469380	     -0.14057156	      0.70481801	      0.59289479	     -0.35314193	      0.13121432	      0.23809718	     -0.07929952	      0.75595200	      0.17411986	     -0.29324004	      0.17046478	      0.27724546	     -0.14228930	      0.69496083	      0.22620031	     -0.31127912	      0.08557838	      0.06111657	     -0.19538713	      0.77256000	      0.04247614	     -0.31444597
      0.13333000	      0.56772923	      0.93524533	     -0.24467807	      4.78220781	      7.62219566	    -11.29905887	    -12.86820001	    -13.00615696	      6.54928715	    -42.54038019	    -21.78272497	     18.12603505	      6.10259092	     -0.41022856	    -25.81461631	      3.76969729	     -6.96532212	    -11.54688732	     10.43111611	      0.00000000	      0.00000000	      0.00000000	      0.00000000	      0.59529156	      0.94277977	     -0.13606511	      0.62726496	      0.97719720	     -0.34377343	      0.57913726	      0.93589595	     -0.24241598	      0.40391167	      0.95103776	     -0.22853571	      0.41475784	      0.96587142	     -0.31477113	      0.50185192	      0.86749894	     -0.19587102	      0.52747449	      0.88777852	     -0.33092178	      0.51466320	      0.87763873	     -0.26339640	      0.47285575	      0.43302299	     -0.12187977	      0.45505638	      0.45015352	     -0.23989721	      0.52699296	      0.54773199	     -0.05145032	      0.54884611	      0.60059496	     -0.12598802	      0.53417703	      0.51926434	     -0.14413703	      0.07654252	      0.20166482	     -0.13122458	      0.07809084	      0.19794241	     -0.19964703	      0.14688791	      0.22888426	     -0.06498976	      0.18848052	      0.27102448	     -0.12764075	      0.43082777	      0.45523850	     -0.17455375	      0.09968156	      0.20212659	     -0.17205675	      0.09321152	      0.08238870	     -0.17452631	      0.73046273	      0.49929770	     -0.37801099	      0.69016914	      0.49466230	     -0.27767942	      0.79603925	      0.67833632	     -0.29761607	      0.71431810	      0.70741745	     -0.35286741	      0.73676918	      0.62359106	     -0.35188706	      0.64760450	      0.06671665	     -0.38284160	      0.64413509	      0.07101031	     -0.31321582	      0.75826965	      0.16247858	     -0.31443718	      0.69920547	      0.21964185	     -0.33492761	      0.67782692	      0.50049239	     -0.31507940	      0.64888750	      0.08546843	     -0.34052186	      0.77237917	      0.04010216	     -0.33192057	      0.53529680	      1.34895344	     -0.17909820	      0.54112586	      1.34625281	     -0.33461374	      0.43830924	      1.41800012	     -0.27238988	      0.52603090	      1.34863082	     -0.26129447	      0.56736642	      1.14791397	     -0.26292105	      0.51203400	      0.87313100	     -0.27031100	      0.50208900	      0.85519500	     -0.22626200	      0.52390100	      0.86829900	     -0.32975000	      0.42682400	      0.44111600	     -0.19247700	      0.67659000	      0.48257600	     -0.31153100	      0.09393400	      0.18944700	     -0.18319100	      0.64429300	      0.06802700	     -0.31062200	      0.58915900	      0.95654800	     -0.24994900	      0.56826600	      0.94399600	     -0.15082000	      0.61005200	      0.96910100	     -0.34907700	      0.38409600	      0.98181800	     -0.24387900	      0.39756100	      0.99037300	     -0.32797200	      0.42369200	      0.44651400	     -0.13330500	      0.69051700	      0.48535900	     -0.36931100	      0.44988400	      0.43977900	     -0.25365600	      0.65436000	      0.47825200	     -0.26598400	      0.08890900	      0.19745100	     -0.14638500	      0.64617800	      0.06779400	     -0.35007600	      0.09804600	      0.19194200	     -0.21271900	      0.65113300	      0.07418600	     -0.28041400	      0.45213000	      1.44073000	     -0.27079600	      0.53130781	      1.38104827	     -0.18621862	      0.55535000	      1.36728800	     -0.33901600	      0.52297814	      1.37727752	     -0.26717900	      0.55526292	      1.17715792	     -0.26055008	      0.45615400	      0.54584400	     -0.05459100	      0.77780700	      0.64729400	     -0.30506300	      0.49781000	      0.59732700	     -0.12176100	      0.69945800	      0.67876900	     -0.36337500	      0.49287100	      0.51444800	     -0.14084100	      0.71349500	      0.59259500	     -0.35319100	      0.15286100	      0.24174000	     -0.07928600	      0.75753000	      0.17252600	     -0.29320500	      0.19254600	      0.28112700	     -0.14196200	      0.69737300	      0.22549400	     -0.31179200	      0.10430500	      0.06617700	     -0.19409100	      0.77254400	      0.04234500	     -0.31475200	      0.00000000	      0.00000000	      0.00000000	      1.22043237	      0.00000000	     -0.17715120	    -76.98761975	    651.89335854	     26.27994333	      0.65986395	      0.00000000	     -0.31504788	      0.00000000	      0.00000000	      0.00000000	      0.00000000	      1.39374951	      0.00000000	      0.51203406	      0.87313056	     -0.27031121	      0.50208896	      0.85519487	     -0.22626249	      0.52390105	      0.86829913	     -0.32975003	      0.42682356	      0.44111648	     -0.19247697	      0.67659003	      0.48257565	     -0.31153089	      0.09393378	      0.18944700	     -0.18319139	      0.64429283	      0.06802749	     -0.31062213	      0.58915913	      0.95654833	     -0.24994883	      0.56826580	      0.94399607	     -0.15082033	      0.61005247	      0.96910059	     -0.34907731	      0.38409555	      0.98181802	     -0.24387902	      0.39756146	      0.99037343	     -0.32797217	      0.42369181	      0.44651371	     -0.13330509	      0.69051659	      0.48535931	     -0.36931109	      0.44988444	      0.43977869	     -0.25365573	      0.65436018	      0.47825229	     -0.26598424	      0.08890942	      0.19745085	     -0.14638522	      0.64617783	      0.06779414	     -0.35007644	      0.09804609	      0.19194202	     -0.21271855	      0.65113330	      0.07418583	     -0.28041437	      0.45213047	      1.44072962	     -0.27079609	      0.00000000	      0.00000000	      0.00000000	      0.55534953	      1.36728764	     -0.33901638	      0.00000000	      0.00000000	      0.00000000	      0.00000000	      0.00000000	      0.00000000	      0.45615366	      0.54584360	     -0.05459082	      0.77780694	      0.64729387	     -0.30506274	      0.49780965	      0.59732711	     -0.12176093	      0.69945765	      0.67876905	     -0.36337510	      0.49287066	      0.51444757	     -0.14084136	      0.71349519	      0.59259504	     -0.35319111	      0.15286145	      0.24174026	     -0.07928593	      0.75753039	      0.17252615	     -0.29320475	      0.19254640	      0.28112707	     -0.14196175	      0.69737345	      0.22549383	     -0.31179178	      0.10430519	      0.06617685	     -0.19409086	      0.77254432	      0.04234507	     -0.31475160
